<?xml version="1.0" encoding="UTF-8"?>
<svg xmlns="http://www.w3.org/2000/svg" viewBox="0 0 1920 568" width="1920" height="568">
<path d="M1176.81 93.51C1190.29 91.75 1205.72 96.24 1213.97 107.58C1228.22 127.19 1215.07 154.98 1192.38 159.74C1178.47 162.65 1161.63 159.77 1152.07 148.4C1147.12 142.53 1144.52 135.14 1144.5 127.5C1144.44 108.45 1158.67 95.88 1176.81 93.51ZM1241.5 131.01C1262.67 131.01 1283.83 131.01 1305 131.01C1305 148.73 1305 166.45 1305 184.17C1322.99 184.17 1340.99 184.17 1358.98 184.17C1358.98 200.51 1358.98 216.84 1358.98 233.17C1341.04 233.17 1323.1 233.17 1305.17 233.17C1304.13 253.86 1305 274.79 1305 295.5C1305 307.44 1303.37 320.72 1306.22 332.39C1312.2 356.87 1340.99 352.83 1357.5 342.7C1363.13 357.63 1368.76 372.57 1374.39 387.5C1363.31 396.8 1347.47 399.87 1333.5 401.18C1299.96 404.32 1261.97 394.22 1247.92 360.52C1238.3 337.45 1241.5 305.32 1241.5 280.5C1241.5 230.67 1241.45 180.84 1241.5 131.01ZM1846.64 144.32C1850.24 143.71 1854.05 143.82 1857.56 144.76C1883.98 151.85 1883.87 191.23 1856.47 195.88C1852.53 196.55 1848.03 196.44 1844.19 195.39C1817.71 188.13 1819.5 148.9 1846.64 144.32ZM1847.56 147.25C1817.73 151.98 1824.61 197.79 1855.49 192.94C1884.57 188.38 1877.47 142.51 1847.56 147.25ZM1840.5 155.5C1845.33 154.7 1853.07 153.6 1857.68 155.77C1865.08 159.27 1862.36 168.84 1856.95 172.5C1858.8 176.83 1860.65 181.17 1862.5 185.5C1861.17 185.5 1859.48 185.8 1858.22 185.29C1854.19 183.68 1853.68 175 1850.2 173.37C1848.91 172.76 1847.36 173.12 1846.01 173.11C1846.01 177.13 1846.01 181.15 1846.01 185.17C1844.7 185.15 1841.98 185.63 1840.87 184.65C1839.71 183.61 1840.5 178.97 1840.5 177.5C1840.5 170.17 1840.49 162.83 1840.5 155.5ZM1846.14 160.13C1846.14 162.74 1846.14 165.35 1846.14 167.96C1848.93 167.96 1851.71 167.96 1854.5 167.96C1857.03 165.18 1856.94 163.5 1855.5 160.13C1852.38 160.13 1849.26 160.13 1846.14 160.13ZM1594.5 311C1542.2 311 1489.91 311 1437.61 311C1444.77 348.04 1487.37 358.16 1519.31 349.71C1527.2 347.62 1534.82 343.78 1541.36 338.93C1544.11 336.89 1546.58 334.47 1549.5 332.77C1560.17 344.35 1570.83 355.92 1581.5 367.5C1564.4 388.64 1536.64 397.81 1510.5 400.21C1455.91 405.24 1398.37 382.37 1381.34 326.23C1377.9 314.88 1376.79 303.31 1376.83 291.5C1376.89 278.27 1379.4 265.05 1384.27 252.74C1404.56 201.46 1460.29 178.72 1512.57 188.7C1535.21 193.03 1556.88 203.71 1571.91 221.61C1583.64 235.57 1590.97 252.6 1594.19 270.47C1596.57 283.7 1597.14 297.79 1594.5 311ZM759.81 187.49C803.6 181.55 851.8 199.89 874.91 238.62C898.01 277.34 893.86 331.26 863.44 364.93C847.36 382.72 824.91 394.38 801.44 398.78C781.13 402.58 759.78 401.94 739.81 396.61C720.83 391.54 702.05 381.4 688.65 366.84C656.27 331.64 651.11 275.32 677.6 235.12C696.28 206.76 726.92 191.96 759.81 187.49ZM1124.17 398.15C1104.28 398.15 1084.39 398.15 1064.5 398.15C1062.33 389.52 1063.83 373.07 1063.83 363.5C1063.83 346.5 1063.83 329.5 1063.83 312.5C1063.83 302.97 1064.25 293.32 1063.55 283.82C1061.68 258.6 1051.26 239.83 1023.5 239.01C1017.45 238.83 1011.38 239.5 1005.55 241.12C973.53 250 971.84 279.74 971.84 307.5C971.84 318.83 971.84 330.17 971.84 341.5C971.84 350.5 971.84 359.5 971.84 368.5C971.84 378.25 972.72 388.51 971.5 398.16C951.34 398.16 931.17 398.16 911.01 398.16C911.01 328.61 911.01 259.05 911.01 189.5C930.34 189.5 949.67 189.5 969 189.5C969 197.43 969 205.37 969 213.3C983.08 201.66 993.03 194.21 1011.38 189.75C1023.2 186.88 1035.36 186.32 1047.5 187.01C1056.42 187.52 1065.44 189.51 1073.81 192.62C1080.32 195.04 1086.5 198.33 1092.07 202.46C1128.94 229.78 1124.17 275.87 1124.17 316.5C1124.17 328.83 1124.17 341.17 1124.17 353.5C1124.17 368.38 1124.17 383.27 1124.17 398.15ZM1826.23 239.5C1810.65 247.99 1795.08 256.48 1779.5 264.96C1772.32 254.38 1764.46 245.19 1752.27 240.26C1746.86 238.08 1741.29 237.13 1735.5 236.73C1700.4 234.29 1676.71 262.79 1678.17 296.5C1678.76 310.15 1682.88 324.01 1692.06 334.41C1708.09 352.57 1736.89 356.9 1758 345.49C1767.49 340.36 1773.77 332.16 1779.5 323.3C1795.17 332.03 1810.83 340.76 1826.5 349.49C1794.92 413.2 1703.99 415.34 1653.15 374.37C1629.16 355.04 1616.62 323.84 1616.83 293.5C1617.08 258.73 1633.01 227 1661.66 207.12C1710.91 172.94 1799.81 179.22 1826.23 239.5ZM1212.16 189.5C1212.16 259.05 1212.16 328.6 1212.16 398.15C1192.06 398.15 1171.95 398.15 1151.84 398.15C1151.84 328.6 1151.84 259.05 1151.84 189.5C1171.95 189.5 1192.06 189.5 1212.16 189.5ZM1537.5 275.5C1538.37 270.02 1535.76 264.24 1533.25 259.27C1526.24 245.37 1512.85 235.65 1497.46 233.2C1467.81 228.48 1442.34 244.84 1436.61 274.5C1444.21 277.12 1459.82 275.5 1468.5 275.5C1491.5 275.5 1514.5 275.5 1537.5 275.5ZM773.56 236.27C760.3 237.03 747.17 241.54 737.65 251.16C727.39 261.52 722.47 276.15 721.95 290.5C720.76 323.4 740.9 353 776.5 351.49C789.74 350.93 803.61 346.28 812.85 336.35C844.77 302.04 825.89 233.28 773.56 236.27ZM1602.5 435.83C1604.76 439.72 1603.5 455.93 1603.5 461.5C1603.5 464.59 1603.96 467.64 1602.5 470.17C1598.58 468.73 1600 466.65 1600 462.5C1600 456.17 1600 449.83 1600 443.5C1600 439.35 1598.58 437.27 1602.5 435.83ZM1648.77 436.5C1645.26 439.02 1642.95 441.93 1638.5 441.83C1640.88 438.21 1644.35 435.56 1648.77 436.5ZM1732.84 436.5C1732.5 439.46 1732.45 439.49 1729.5 439.97C1729.05 439.15 1728.61 438.32 1728.16 437.5C1729.94 435.91 1730.53 435.97 1732.84 436.5ZM936.5 438.5C935.42 442.36 929.01 440.84 925.5 440.84C924.2 447.74 925 455.43 925 462.5C925 466.65 926.42 468.73 922.5 470.17C920.92 467.44 921.5 463.82 921.5 460.5C921.5 454.17 921.5 447.83 921.5 441.5C919.41 441.04 911.87 441.41 910.76 440.67C909.86 440.07 910.3 439.37 910 438.5C913.55 436.22 924.66 437.5 929.5 437.5C932.02 437.5 934.44 437.03 936.5 438.5ZM1175.5 440.83C1177.06 442.45 1175.7 439.75 1176.9 441.67C1177.66 442.89 1176.52 444.81 1177.77 445.81C1179.74 447.39 1182.49 445.46 1184.5 447.5C1182.91 449.52 1180.31 449.01 1177.5 449.17C1177 452.63 1175.99 464.45 1178.79 466.71C1181.36 468.77 1183.46 465.82 1185.84 467.5C1184.07 472.13 1176.46 472.06 1174.47 467.08C1172.92 463.23 1175.08 451.88 1173.67 449.76C1172.86 448.55 1171.3 449.72 1169.16 447.5C1170.75 446.07 1172.06 446.79 1173.23 445.81C1174.46 444.78 1173.33 442.91 1174.1 441.67C1175.3 439.75 1173.94 442.45 1175.5 440.83ZM1376.5 440.83C1380.83 442.61 1377.11 444.04 1379.67 445.89C1381.48 447.21 1383.26 445.17 1386 447.5C1383.69 449.72 1382.21 448.87 1378.84 449.5C1378.84 454.79 1377.64 461.75 1379.95 466.5C1382.67 467.9 1383.88 467.19 1386.7 466.5C1389 472.09 1378.92 471.74 1376.51 468C1374.13 464.3 1375.16 458.68 1375.16 454.5C1375.16 453.32 1375.65 450.73 1374.89 449.72C1374.06 448.6 1372.71 449.38 1371.67 448.78C1371.23 448.53 1371.22 447.83 1370.83 447.5C1372.07 446.55 1374.52 445.85 1374.89 445.33C1375.82 444.06 1374.86 442.96 1376.5 440.83ZM961.5 445.5C965.62 451.25 957.6 466.94 969.5 467.11C981.87 467.28 974.9 452.04 978.5 445.83C979.48 446.18 980.16 445.66 980.9 446.67C981.77 447.87 981.17 451.08 981.17 452.5C981.17 458.18 981.94 464.59 980.5 470C977.18 469.01 978.31 467.81 977.43 467.45C976.79 467.18 974.07 469.47 973.27 469.71C969.28 470.9 964.26 470.35 961.37 467.14C957.75 463.12 959 456.48 959 451.5C959 450.11 958.45 447.03 959.41 445.87C959.94 445.24 960.81 445.62 961.5 445.5ZM1042.5 445.5C1042.97 446.15 1043.63 448.3 1044.3 448.46C1044.99 448.63 1048.84 445.59 1050.69 445.33C1056.68 444.5 1062.6 448.74 1063.98 454.52C1067.04 467.29 1055.02 474.89 1044.5 467.61C1043.22 471.31 1044.37 475.94 1042.5 479.17C1038.58 477.73 1040 475.65 1040 471.5C1040 465.5 1040 459.5 1040 453.5C1040 449.98 1038.59 446.2 1042.5 445.5ZM1107.5 470.17C1105.98 469.87 1103.96 468.47 1103.64 468.43C1102.54 468.29 1100.59 469.77 1099.48 470.07C1094.76 471.37 1088.81 470.22 1087.6 464.82C1085.32 454.58 1098.93 456.73 1104.5 455.5C1103.13 443.8 1095.61 450.19 1089.07 450.5C1087.15 444.32 1100.89 444.93 1104.37 447.1C1109.75 450.46 1108.52 464.72 1107.5 470.17ZM1147.84 447.5C1145.26 449.93 1140.8 449.34 1139.35 453.78C1137.7 458.8 1140.76 466.17 1137.5 470C1136.63 469.7 1135.93 470.14 1135.33 469.24C1134.56 468.08 1135.16 464.86 1135.16 463.5C1135.16 460.67 1134.42 448.53 1135.33 446.72C1136.26 444.86 1135.18 447.54 1136.5 445.83C1138.38 446.6 1138.63 447.15 1139.77 448.5C1142.5 446.1 1145.7 443.77 1147.84 447.5ZM1212.5 445.5C1213.9 446.52 1214.36 448.44 1214.57 448.54C1214.58 448.54 1218.61 445.98 1220.18 445.58C1226.62 443.96 1232.36 448.05 1233.05 454.5C1233.34 457.14 1233.17 459.85 1233.17 462.5C1233.17 466.28 1234 467.56 1231.5 470.17C1229.94 468.55 1231.3 471.25 1230.1 469.33C1227.12 464.55 1234.92 448.86 1222.5 448.68C1209.19 448.49 1216.92 464.83 1213.81 469.23C1212.82 470.64 1213.8 468.69 1212.5 469.84C1211.23 468.61 1212.22 470.71 1211.28 469.23C1209.95 467.15 1211 454.62 1211 451.5C1211 448.83 1210.61 446.99 1212.5 445.5ZM1319.5 447.5C1316.99 450.18 1312.71 449.31 1311.3 453.75C1309.7 458.78 1312.77 466.16 1309.5 470C1308.63 469.7 1307.93 470.14 1307.33 469.24C1306.56 468.08 1307.16 464.86 1307.16 463.5C1307.16 460.67 1306.42 448.53 1307.33 446.72C1308.26 444.86 1307.18 447.54 1308.5 445.83C1309.84 446.37 1309.06 445.48 1310.23 446.19C1310.82 446.54 1310.84 447.6 1311.55 447.76C1314.21 448.33 1317.19 442.3 1319.5 447.5ZM1504.5 445.5C1505.9 446.52 1506.36 448.44 1506.57 448.54C1506.58 448.54 1510.61 445.98 1512.18 445.58C1518.62 443.96 1524.35 448.07 1525.04 454.5C1525.33 457.14 1525.17 459.85 1525.17 462.5C1525.17 466.28 1526 467.56 1523.5 470.17C1521.94 468.55 1523.3 471.25 1522.1 469.33C1519.13 464.57 1526.87 448.86 1514.5 448.68C1501.11 448.49 1508.95 464.79 1505.81 469.23C1504.82 470.64 1505.8 468.69 1504.5 469.84C1503.23 468.61 1504.22 470.71 1503.28 469.23C1501.95 467.15 1503 454.62 1503 451.5C1503 448.83 1502.61 446.99 1504.5 445.5ZM1281.77 459C1274.95 459 1268.12 459 1261.3 459C1262.78 465 1267.06 468.11 1273.46 466.88C1276.09 466.37 1277.18 464.15 1279.5 465.39C1279.95 470.21 1272.57 470.83 1268.81 470.48C1259.91 469.67 1255.96 460.51 1259.2 452.69C1262.09 445.71 1272.16 443.53 1277.8 448.69C1280.74 451.38 1281.29 455.27 1281.77 459ZM1432.7 459C1425.86 459 1419.01 459 1412.17 459C1413.7 464.62 1417.32 467.77 1423.5 467.01C1426.94 466.59 1428.16 463.86 1431.07 466.5C1421.49 477.13 1403.98 466.59 1410.11 452.61C1412.96 446.09 1421.77 443.76 1427.59 447.93C1431.39 450.65 1432.04 454.68 1432.7 459ZM1477.5 450.62C1473.64 453.12 1474.09 450.17 1470.31 449.26C1464.99 447.99 1459.58 450.84 1458.9 456.5C1458.2 462.36 1461.88 468.17 1468.36 467.65C1471.53 467.4 1473.75 464.23 1476.5 464.92C1476.54 465.45 1477.02 465.93 1476.97 466.46C1476.59 470.21 1469.21 471.06 1466.62 470.7C1460.7 469.87 1456.2 465.47 1455.84 459.5C1455.58 455.02 1456.64 450.7 1460.43 447.95C1465.31 444.39 1474.61 444.76 1477.5 450.62ZM1557.78 446.36C1562.76 444.87 1569.12 445.8 1572.41 450.11C1576.98 456.11 1575.02 467.26 1567.25 469.7C1561.82 471.41 1555.52 470.14 1552.13 465.33C1547.85 459.28 1550.2 448.61 1557.78 446.36ZM1636.73 446.3C1641.16 445.1 1647.07 445.61 1650.34 449.16C1655.69 454.99 1654.31 466.83 1646.19 469.61C1640.26 471.64 1633.44 469.88 1630.2 464.28C1626.69 458.23 1629.58 448.24 1636.73 446.3ZM1700.5 445.83C1702.08 448.56 1701.5 452.18 1701.5 455.5C1701.5 462.48 1703.75 474.63 1695.85 478.38C1691.68 480.36 1677.67 480.48 1678.5 474.2C1680.55 473.45 1681.51 475.03 1683.66 475.76C1688.39 477.36 1695.35 477.26 1697 471.46C1697.46 469.81 1697.43 468.19 1697.49 466.5C1694.45 467.37 1691.93 469.19 1688.5 469.28C1680.59 469.49 1675.07 463.37 1676.13 455.52C1677.15 448 1684.55 444.74 1691.46 446.08C1693.18 446.41 1696.81 449.1 1697.28 448.86C1698.72 448.13 1696.78 447.15 1700.5 445.83ZM1730.5 445.83C1732.06 447.45 1730.7 444.75 1731.9 446.67C1733.18 448.72 1732.17 460.47 1732.17 463.5C1732.17 464.97 1732.75 468.01 1731.9 469.28C1730.82 470.89 1731.91 468.67 1730.5 470C1729.09 468.67 1730.18 470.89 1729.1 469.28C1728.25 468.01 1728.83 464.97 1728.83 463.5C1728.83 460.47 1727.82 448.72 1729.1 446.67C1730.3 444.75 1728.94 447.45 1730.5 445.83ZM1778.8 451.5C1775.85 451.88 1774.49 449.52 1771.47 449.08C1765.84 448.24 1761.1 451.78 1760.85 457.5C1760.59 463.33 1764.82 468.55 1771.06 467.52C1773.97 467.04 1775.9 464.28 1778.5 464.89C1778.55 465.44 1779.05 465.92 1779 466.47C1778.65 470.54 1770.55 471.08 1767.9 470.54C1760.82 469.08 1757.34 463.48 1757.88 456.5C1758.45 449.14 1764.49 445.35 1771.5 445.86C1774.49 446.08 1780.21 447.93 1778.8 451.5ZM1809.71 446.29C1813.97 445.17 1819.46 445.57 1822.79 448.74C1828.72 454.38 1827.38 466.67 1819.13 469.57C1813.28 471.62 1806.31 469.94 1803.12 464.35C1799.61 458.2 1802.44 448.19 1809.71 446.29ZM1688.53 448.37C1676.37 448.57 1677.3 466.8 1689.5 466.1C1700.75 465.46 1699.76 448.19 1688.53 448.37ZM1048.75 449.29C1038.49 452.81 1043.21 470.66 1055.29 466.76C1065.7 463.4 1060.93 445.12 1048.75 449.29ZM1278.39 455.5C1275.13 446.54 1264.78 446.12 1261.84 455.5C1266.55 457.27 1273.62 457.15 1278.39 455.5ZM1429.03 455.5C1425.83 446.51 1413.86 446.07 1412.5 456.1C1417.65 456.78 1424.31 457.36 1429.03 455.5ZM1559.6 449.15C1548.68 452.17 1553.62 471.5 1566.19 466.61C1575.71 462.9 1571.3 445.91 1559.6 449.15ZM1637.78 449.33C1627.59 452.95 1632.42 470.54 1644.31 466.78C1654.84 463.45 1650.02 444.97 1637.78 449.33ZM1810.75 449.29C1800.5 452.8 1805.28 470.77 1817.31 466.79C1827.68 463.36 1822.94 445.12 1810.75 449.29ZM1104.5 459.5C1099.72 458.44 1093.45 457.56 1090.93 462.5C1092.55 470.44 1103.96 469.47 1104.5 459.5Z" fill="#0d1b50" fill-rule="evenodd" stroke="#0d1b50" stroke-width="0.25" stroke-linejoin="round"/>
<path d="M356.11 149.93C361.35 157.59 366.59 165.26 371.84 172.93C364.62 180.12 357.4 187.31 350.18 194.5C360.71 198.33 370.24 201.15 379.15 208.4C403.17 227.93 409.74 262.95 394.42 289.91C387.43 302.21 375.86 311.56 365.96 321.46C348.96 338.46 331.95 355.46 314.95 372.45C301.28 386.12 287.62 399.78 273.95 413.45C267.32 420.08 259.53 425.65 249.77 420.72C244.48 418.05 240.3 412.47 236.16 408.34C228 400.17 219.83 392 211.67 383.83C183.83 356 156 328.17 128.17 300.33C119.83 292 111.5 283.66 103.17 275.33C98.09 270.25 93.03 265.33 93.28 257.52C93.51 250.43 98.34 246.11 102.97 241.47C110.14 234.31 117.2 227.03 124.36 219.86C155.53 188.68 186.47 157.33 217.65 126.15C225.31 118.49 232.87 110.71 240.54 103.04C245.38 98.2 250.1 93.24 257.5 93.18C266.81 93.1 272.57 100.98 278.55 106.95C292.05 120.46 305.75 133.8 319.05 147.5C315.54 153.84 308.13 159.29 302.96 164.46C289.57 177.85 273.13 191.46 262.63 207.16C237.17 245.23 244.56 298.32 279.85 327.61C287.15 333.67 296.16 340.37 305.5 342.62C312.57 335.58 319.64 328.54 326.71 321.5C323.86 320.13 320.78 319.63 317.77 318.66C309.46 315.96 301.67 311.13 295.17 305.34C289.5 300.29 284.85 293.89 281.35 287.18C278.63 281.98 276.87 276.37 275.7 270.64C271.64 250.68 277.52 230.51 290.62 215.15C294.72 210.34 299.67 206.12 304.15 201.65C312.48 193.31 320.81 184.98 329.14 176.64C337.99 167.8 346.48 157.9 356.11 149.93ZM430.06 259.16C451.73 290.74 473.4 322.32 495.07 353.89C489.91 360.13 483.59 365.63 477.86 371.36C466.85 382.35 455.85 393.35 444.85 404.35C438.79 410.42 431.58 420.91 422.5 422.05C413.1 423.23 407.77 417.96 401.65 411.85C391.98 402.18 382.32 392.52 372.65 382.85C367.82 378.01 361.64 373.22 357.96 367.5C369.3 355.83 380.95 344.46 392.46 332.96C403.77 321.64 414.69 310.69 421.42 295.9C426.83 284 428.33 271.94 430.06 259.16Z" fill="#00b3fc" fill-rule="evenodd" stroke="#00b3fc" stroke-width="0.25" stroke-linejoin="round"/>
<path d="M495.07 353.89C473.4 322.32 451.73 290.74 430.06 259.16C429.42 250.9 428.89 242.71 426.76 234.65C419.13 205.88 398.38 185.01 371.84 172.93C366.59 165.26 361.35 157.59 356.11 149.93C360.48 144.66 365.81 140 370.66 135.16C379.82 125.99 388.99 116.82 398.15 107.65C404.31 101.48 410.02 93.85 419.5 93.83C427.5 93.82 432.09 98.89 437.35 104.15C444.86 111.64 452.35 119.15 459.85 126.65C490.69 157.48 521.52 188.31 552.36 219.14C559.69 226.48 567.02 233.81 574.36 241.14C578.81 245.59 583.45 249.82 583.98 256.5C584.92 268.43 571.07 278.14 563.35 285.85C548.35 300.85 533.34 315.84 518.34 330.84C510.71 338.48 503.37 347 495.07 353.89Z" fill="#008dfb" fill-rule="evenodd" stroke="#008dfb" stroke-width="0.25" stroke-linejoin="round"/>
</svg>